<svg width="1200" height="630" viewBox="0 0 1200 630" fill="none" xmlns="http://www.w3.org/2000/svg">
  <rect width="1200" height="630" fill="#000000"/>
  <rect x="50" y="50" width="1100" height="530" rx="20" fill="#1a1a1a"/>
  
  <!-- Coffee Bean Icon -->
  <g transform="translate(100, 150)">
    <ellipse cx="60" cy="60" rx="40" ry="60" fill="#D4AF37"/>
    <ellipse cx="60" cy="50" rx="25" ry="15" fill="#8B4513"/>
    <path d="M45 50C45 42 51 35 60 35C69 35 75 42 75 50C75 58 69 65 60 65C51 65 45 58 45 50Z" fill="#1a1a1a"/>
  </g>
  
  <!-- Main Text -->
  <text x="300" y="280" font-family="Arial, sans-serif" font-size="72" font-weight="bold" fill="#ffffff">
    Bullish Cafe
  </text>
  <text x="300" y="340" font-family="Arial, sans-serif" font-size="36" fill="#D4AF37">
    Coming Soon
  </text>
  <text x="300" y="400" font-family="Arial, sans-serif" font-size="24" fill="#888888">
    The future of crypto-coffee is brewing
  </text>
  <text x="300" y="440" font-family="Arial, sans-serif" font-size="20" fill="#666666">
    Experience XRP Ledger integration • Premium Coffee • Blockchain Technology
  </text>
  
  <!-- Decorative Elements -->
  <circle cx="950" cy="150" r="3" fill="#D4AF37" opacity="0.6"/>
  <circle cx="980" cy="180" r="2" fill="#D4AF37" opacity="0.4"/>
  <circle cx="920" cy="200" r="2" fill="#D4AF37" opacity="0.5"/>
  <circle cx="1000" cy="120" r="1.5" fill="#D4AF37" opacity="0.3"/>
  
  <!-- Bottom Border -->
  <rect x="50" y="570" width="1100" height="2" fill="#D4AF37"/>
</svg> 